<svg xmlns="http://www.w3.org/2000/svg" id="Layer_1" width="189.8" height="219.2" viewBox="0 0 189.8 219.2"><path d="M59.3 146.5h24.5l-7.4-9-17.1 9zm9.3-18.2H56.8L40.9 147l2.5 3.6 30.4-16-5.2-6.3zm-21.9-12.9h98.5v9.36H46.7zm26.6 12.9l15.1 18.2h13l15.1-18.2H73.3zm47.9 0l-5.4 6.3 30.6 16 2.5-3.4-15.8-18.9h-11.9zm-15.1 18.2h24.4l-17.1-9-7.3 9zm26.6-34.7a45.2 45.2 0 0 0 2.2-13.7 39 39 0 0 0-78 0c0 4.7.4 9.5 2.2 13.7z"/><path d="M94.9 0L0 54.8v109.6l94.9 54.8 94.9-54.8V54.8zm57.6 148.1l-4.1 5.9a1.9 1.9 0 0 1-2.4.6l-8.6-4.5H52.3l-8.7 4.5a1.8 1.8 0 0 1-2.3-.6l-4.2-5.9a2 2 0 0 1 .2-2.1l15-17.7h-7.4a1.7 1.7 0 0 1-1.8-1.8v-12.9a1.7 1.7 0 0 1 1.8-1.8h10.4a53.4 53.4 0 0 1-2-13.7 42.6 42.6 0 0 1 85.2 0 45.9 45.9 0 0 1-2 13.7h10.4a1.7 1.7 0 0 1 1.8 1.8v12.9a1.7 1.7 0 0 1-1.8 1.8h-9.2l14.8 17.7a1.8 1.8 0 0 1 0 2.1z"/></svg>