<svg xmlns="http://www.w3.org/2000/svg" id="Layer_1" width="189.8" height="219.2" viewBox="0 0 189.8 219.2"><path d="M89.2 135.2h11.5v11.34H89.2zm-21.6 0h18v11.34h-18zm36.7 0h18v11.34h-18zm-9.4-75.1c-21.1 0-38.7 12.8-39.6 36h79.2c-.9-23.2-18.5-36-39.6-36zm-42.5 75.1h11.5v11.34H52.4zm-10.8-3.6h106.6V99.7H41.6zM94 119.3h43.9a1.8 1.8 0 0 1 0 3.6H94a1.8 1.8 0 1 1 0-3.6z"/><path d="M94.9 0L0 54.8v109.6l94.9 54.8 94.9-54.8V54.8zm56.9 133.4a1.7 1.7 0 0 1-1.8 1.8h-9v11.3h9a1.8 1.8 0 0 1 0 3.6H39.8a1.8 1.8 0 0 1 0-3.6h9v-11.3h-9a1.8 1.8 0 0 1-1.8-1.8V97.9a1.7 1.7 0 0 1 1.8-1.8h11.9c.9-25.6 20-39.6 43.2-39.6s42.3 14 43.2 39.6H150a1.7 1.7 0 0 1 1.8 1.8z"/><path d="M125.9 135.2h11.5v11.34h-11.5z"/><path fill="#fff" d="M94 122.9h43.9a1.8 1.8 0 0 0 0-3.6H94a1.8 1.8 0 1 0 0 3.6z"/></svg>